<svg version="1.1" id="Layer_1" xmlns="http://www.w3.org/2000/svg" xmlns:xlink="http://www.w3.org/1999/xlink" x="0px" y="0px"
	 width="100%" viewBox="0 0 512 512" enable-background="new 0 0 512 512" xml:space="preserve">
<path fill="#FFFFFF" opacity="1.000000" stroke="none" 
	d="
M1.000005,500.000000 
	C1.000000,333.744080 1.000000,167.488129 1.000000,1.000000 
	C141.023987,1.000000 281.048126,1.000000 421.417969,1.368042 
	C412.908417,3.845718 405.272186,8.282671 398.910095,14.640147 
	C283.786713,129.679825 168.674896,244.731247 53.777035,359.995880 
	C48.795132,364.993683 44.595570,371.598846 42.236732,378.238647 
	C32.689140,405.113586 24.051878,432.310974 14.982771,459.357208 
	C10.428073,472.940430 5.667494,486.454590 1.000005,500.000000 
z"/>
<path fill="#FFFFFF" opacity="1.000000" stroke="none" 
	d="
M513.000000,92.000000 
	C513.000000,232.268021 513.000000,372.536041 513.000000,513.000000 
	C346.975983,513.000000 180.951874,513.000000 14.583382,512.630798 
	C14.892859,512.162659 15.577783,512.157104 16.196150,511.951447 
	C52.228241,499.967468 88.189102,487.763977 124.313866,476.066620 
	C139.030777,471.301208 151.244781,463.573212 162.247543,452.525330 
	C270.510254,343.818848 379.058533,235.396606 487.608612,126.976677 
	C497.974152,116.623566 508.499695,106.540405 513.000000,92.000000 
z"/>
<path fill="#030201" opacity="1.000000" stroke="none" 
	d="
M513.000000,91.531731 
	C508.499695,106.540405 497.974152,116.623566 487.608612,126.976677 
	C379.058533,235.396606 270.510254,343.818848 162.247543,452.525330 
	C151.244781,463.573212 139.030777,471.301208 124.313866,476.066620 
	C88.189102,487.763977 52.228241,499.967468 16.196150,511.951447 
	C15.577783,512.157104 14.892859,512.162659 14.119497,512.630798 
	C9.743699,513.000000 5.487399,513.000000 1.000000,513.000000 
	C1.000000,508.986237 1.000000,504.969788 1.000005,500.476654 
	C5.667494,486.454590 10.428073,472.940430 14.982771,459.357208 
	C24.051878,432.310974 32.689140,405.113586 42.236732,378.238647 
	C44.595570,371.598846 48.795132,364.993683 53.777035,359.995880 
	C168.674896,244.731247 283.786713,129.679825 398.910095,14.640147 
	C405.272186,8.282671 412.908417,3.845718 421.881836,1.368042 
	C428.021149,1.000000 434.042297,1.000000 440.656281,1.373472 
	C449.505859,3.069333 456.403320,7.123201 462.264709,12.834867 
	C472.493103,22.801985 482.326080,33.178528 492.652802,43.040001 
	C501.631561,51.614319 509.699402,60.644592 513.000000,73.000000 
	C513.000000,79.021156 513.000000,85.042305 513.000000,91.531731 
M46.365704,466.776550 
	C42.773190,462.798492 39.180676,458.820435 34.655640,453.809784 
	C30.775097,466.417908 27.305555,477.690643 23.514503,489.520294 
	C23.927786,489.890106 24.458126,490.653778 24.736855,490.570923 
	C29.167814,489.254059 33.579109,487.866852 37.969749,486.419434 
	C44.963837,484.113708 51.939266,481.751404 60.156815,478.999725 
	C54.983879,474.591003 50.760849,470.991852 46.365704,466.776550 
M419.780060,94.362480 
	C407.259613,81.721313 394.739197,69.080139 382.733795,56.958984 
	C375.840210,63.750984 369.490784,70.006851 363.398376,76.009514 
	C375.738953,88.605484 388.301117,101.427643 401.159912,114.836838 
	C413.423737,127.104652 425.687531,139.372467 437.159607,150.848297 
	C443.999969,144.062057 450.299438,137.812454 456.065887,132.091660 
	C444.293243,119.962868 432.167938,107.470772 419.780060,94.362480 
M96.037537,415.565308 
	C84.161072,403.760254 72.284615,391.955170 60.301743,380.044342 
	C59.847591,380.755981 59.364559,381.265320 59.160263,381.868988 
	C53.209820,399.452148 47.249302,417.032288 41.452892,434.666290 
	C41.099743,435.740662 41.680119,437.647278 42.510643,438.499695 
	C47.722069,443.848206 53.127785,449.007446 58.804672,454.834076 
	C64.082680,460.138794 69.442589,465.365662 74.595230,470.789490 
	C76.453476,472.745544 78.001350,473.127686 80.647408,472.215973 
	C96.630791,466.708679 112.703392,461.460663 128.733078,456.086945 
	C130.509323,455.491516 132.202835,454.649353 133.172134,454.242035 
	C120.780785,441.436096 108.533752,428.779327 96.037537,415.565308 
M469.828217,44.300526 
	C463.695129,38.190319 457.665894,31.971342 451.405365,25.994661 
	C441.274139,16.322868 426.299927,14.377560 416.417847,22.764324 
	C408.509888,29.475670 402.087158,37.937012 395.302124,45.299549 
	C406.955566,57.245377 419.484192,70.088371 432.339264,83.515572 
	C444.624176,95.802567 456.909058,108.089569 469.263184,120.445793 
	C475.982025,113.755066 482.407776,107.715652 488.420380,101.289665 
	C499.082458,89.894585 499.133087,74.579849 488.494659,63.144039 
	C482.619019,56.828007 476.248688,50.972149 469.828217,44.300526 
M108.869431,404.798492 
	C121.497849,417.316956 134.126266,429.835449 146.425095,442.027191 
	C239.419754,349.003571 332.377991,256.016327 424.815674,163.549820 
	C413.012543,151.372986 400.646271,138.615234 387.996216,125.239098 
	C375.521088,112.795822 363.045959,100.352547 351.542206,88.878166 
	C258.331146,182.089203 165.329453,275.090881 73.036316,367.384003 
	C84.505463,379.268463 96.528191,391.726532 108.869431,404.798492 
z"/>
<path fill="#FFFFFF" opacity="1.000000" stroke="none" 
	d="
M513.000000,72.531342 
	C509.699402,60.644592 501.631561,51.614319 492.652802,43.040001 
	C482.326080,33.178528 472.493103,22.801985 462.264709,12.834867 
	C456.403320,7.123201 449.505859,3.069333 441.124573,1.373472 
	C464.926849,1.000000 488.853729,1.000000 513.000000,1.000000 
	C513.000000,24.687109 513.000000,48.374897 513.000000,72.531342 
z"/>
<path fill="#FEDB64" opacity="1.000000" stroke="none" 
	d="
M388.280029,125.857468 
	C400.646271,138.615234 413.012543,151.372986 424.815674,163.549820 
	C332.377991,256.016327 239.419754,349.003571 146.425095,442.027191 
	C134.126266,429.835449 121.497849,417.316956 109.050331,404.357971 
	C110.691483,402.577759 112.110527,401.189545 113.620483,399.908447 
	C116.848511,397.169708 120.123589,394.486450 123.752838,391.897156 
	C129.093155,394.873169 132.848511,392.882019 136.479294,389.247986 
	C201.556366,324.113068 266.675476,259.020142 331.772736,193.905350 
	C336.826752,188.849930 337.125793,186.563889 334.017334,179.947784 
	C338.930847,175.002121 343.697235,170.375305 348.796936,165.868561 
	C353.549438,169.182510 357.495453,168.146484 361.107330,164.590790 
	C364.758881,160.996033 368.290924,157.277054 372.009003,153.753555 
	C376.035004,149.938248 377.020691,145.782913 374.048035,140.597809 
	C378.821350,135.458282 383.550690,130.657867 388.280029,125.857468 
z"/>
<path fill="#FEC750" opacity="1.000000" stroke="none" 
	d="
M123.379395,391.780457 
	C120.123589,394.486450 116.848511,397.169708 113.620483,399.908447 
	C112.110527,401.189545 110.691483,402.577759 108.891068,404.051025 
	C96.528191,391.726532 84.505463,379.268463 73.036316,367.384003 
	C165.329453,275.090881 258.331146,182.089203 351.542206,88.878166 
	C363.045959,100.352547 375.521088,112.795822 388.138123,125.548271 
	C383.550690,130.657867 378.821350,135.458282 373.739807,140.430756 
	C367.969910,137.090744 365.209229,137.262680 360.669769,141.633057 
	C357.091766,145.077805 353.611145,148.625275 350.134155,152.173004 
	C345.235443,157.171341 344.966583,159.534760 348.463654,165.748474 
	C343.697235,170.375305 338.930847,175.002121 333.665527,179.823486 
	C327.691864,176.926437 325.076569,177.234207 320.381592,181.927368 
	C255.081863,247.201736 189.797440,312.491425 124.529030,377.797119 
	C119.524117,382.804932 119.341385,385.967163 123.379395,391.780457 
z"/>
<path fill="#FD6890" opacity="1.000000" stroke="none" 
	d="
M470.101349,44.908852 
	C476.248688,50.972149 482.619019,56.828007 488.494659,63.144039 
	C499.133087,74.579849 499.082458,89.894585 488.420380,101.289665 
	C482.407776,107.715652 475.982025,113.755066 469.263184,120.445793 
	C456.909058,108.089569 444.624176,95.802567 432.230286,82.889114 
	C432.434540,81.692307 432.636169,81.010811 433.077301,80.567825 
	C444.404877,69.192574 455.743835,57.828495 467.135986,46.518024 
	C467.901947,45.757542 469.102783,45.435059 470.101349,44.908852 
z"/>
<path fill="#D13C68" opacity="1.000000" stroke="none" 
	d="
M469.964783,44.604691 
	C469.102783,45.435059 467.901947,45.757542 467.135986,46.518024 
	C455.743835,57.828495 444.404877,69.192574 433.077301,80.567825 
	C432.636169,81.010811 432.434540,81.692307 432.067078,82.597015 
	C419.484192,70.088371 406.955566,57.245377 395.302124,45.299549 
	C402.087158,37.937012 408.509888,29.475670 416.417847,22.764324 
	C426.299927,14.377560 441.274139,16.322868 451.405365,25.994661 
	C457.665894,31.971342 463.695129,38.190319 469.964783,44.604691 
z"/>
<path fill="#F7E9C6" opacity="1.000000" stroke="none" 
	d="
M96.286728,416.122498 
	C108.533752,428.779327 120.780785,441.436096 133.172134,454.242035 
	C132.202835,454.649353 130.509323,455.491516 128.733078,456.086945 
	C112.703392,461.460663 96.630791,466.708679 80.647408,472.215973 
	C78.001350,473.127686 76.453476,472.745544 74.595230,470.789490 
	C69.442589,465.365662 64.082680,460.138794 58.983459,454.398376 
	C71.155937,442.074097 83.156616,430.192566 95.121185,418.274780 
	C95.674911,417.723236 95.905594,416.847321 96.286728,416.122498 
z"/>
<path fill="#F3DAB2" opacity="1.000000" stroke="none" 
	d="
M96.162140,415.843903 
	C95.905594,416.847321 95.674911,417.723236 95.121185,418.274780 
	C83.156616,430.192566 71.155937,442.074097 58.815735,454.096008 
	C53.127785,449.007446 47.722069,443.848206 42.510643,438.499695 
	C41.680119,437.647278 41.099743,435.740662 41.452892,434.666290 
	C47.249302,417.032288 53.209820,399.452148 59.160263,381.868988 
	C59.364559,381.265320 59.847591,380.755981 60.301743,380.044342 
	C72.284615,391.955170 84.161072,403.760254 96.162140,415.843903 
z"/>
<path fill="#AEB8D1" opacity="1.000000" stroke="none" 
	d="
M420.042664,94.978668 
	C432.167938,107.470772 444.293243,119.962868 456.065887,132.091660 
	C450.299438,137.812454 443.999969,144.062057 437.159607,150.848297 
	C425.687531,139.372467 413.423737,127.104652 401.070953,114.183701 
	C404.440765,109.746193 407.763153,105.823959 411.403595,102.223297 
	C414.066650,99.589386 417.147858,97.378258 420.042664,94.978668 
z"/>
<path fill="#949BB4" opacity="1.000000" stroke="none" 
	d="
M419.911377,94.670578 
	C417.147858,97.378258 414.066650,99.589386 411.403595,102.223297 
	C407.763153,105.823959 404.440765,109.746193 400.922668,113.890190 
	C388.301117,101.427643 375.738953,88.605484 363.398376,76.009514 
	C369.490784,70.006851 375.840210,63.750984 382.733795,56.958984 
	C394.739197,69.080139 407.259613,81.721313 419.911377,94.670578 
z"/>
<path fill="#595A6B" opacity="1.000000" stroke="none" 
	d="
M46.537815,467.392700 
	C50.760849,470.991852 54.983879,474.591003 60.156815,478.999725 
	C51.939266,481.751404 44.963837,484.113708 37.969749,486.419434 
	C33.579109,487.866852 29.167814,489.254059 24.736855,490.570923 
	C24.458126,490.653778 23.927786,489.890106 24.004477,489.134277 
	C31.842237,481.629700 39.190025,474.511200 46.537815,467.392700 
z"/>
<path fill="#454554" opacity="1.000000" stroke="none" 
	d="
M46.451759,467.084625 
	C39.190025,474.511200 31.842237,481.629700 24.165230,488.855835 
	C27.305555,477.690643 30.775097,466.417908 34.655640,453.809784 
	C39.180676,458.820435 42.773190,462.798492 46.451759,467.084625 
z"/>
<path fill="#010100" opacity="1.000000" stroke="none" 
	d="
M123.752838,391.897156 
	C119.341385,385.967163 119.524117,382.804932 124.529030,377.797119 
	C189.797440,312.491425 255.081863,247.201736 320.381592,181.927368 
	C325.076569,177.234207 327.691864,176.926437 333.518433,180.142303 
	C337.125793,186.563889 336.826752,188.849930 331.772736,193.905350 
	C266.675476,259.020142 201.556366,324.113068 136.479294,389.247986 
	C132.848511,392.882019 129.093155,394.873169 123.752838,391.897156 
z"/>
<path fill="#040402" opacity="1.000000" stroke="none" 
	d="
M348.796936,165.868561 
	C344.966583,159.534760 345.235443,157.171341 350.134155,152.173004 
	C353.611145,148.625275 357.091766,145.077805 360.669769,141.633057 
	C365.209229,137.262680 367.969910,137.090744 373.695831,140.769867 
	C377.020691,145.782913 376.035004,149.938248 372.009003,153.753555 
	C368.290924,157.277054 364.758881,160.996033 361.107330,164.590790 
	C357.495453,168.146484 353.549438,169.182510 348.796936,165.868561 
z"/>
</svg>